HIERARCHY
ROOT SpineBase
{
  OFFSET 0.000000 0.000000 0.000000
  CHANNELS 6 Xposition Yposition Zposition Zrotation Xrotation Yrotation
  JOINT SpineMid
  {
    OFFSET -0.000000 33.883376 0.000000
    CHANNELS 3 Zrotation Xrotation Yrotation
    JOINT SpineShoulder
    {
      OFFSET -0.178639 25.167891 -0.841317
      CHANNELS 3 Zrotation Xrotation Yrotation
      JOINT Neck
      {
        OFFSET -0.141276 8.319251 -0.633297
        CHANNELS 3 Zrotation Xrotation Yrotation
        JOINT Head
        {
          OFFSET 1.115406 12.824310 5.791934
          CHANNELS 3 Zrotation Xrotation Yrotation
          End Site
          {
            OFFSET 0 0 0
          }
        }
      }
      JOINT ShoulderLeft
      {
        OFFSET -15.115303 -8.104189 -0.217928
        CHANNELS 3 Zrotation Xrotation Yrotation
        JOINT ElbowLeft
        {
          OFFSET -3.295249 -26.270162 7.175085
          CHANNELS 3 Zrotation Xrotation Yrotation
          JOINT WristLeft
          {
            OFFSET -5.039096 -14.863809 14.855988
            CHANNELS 3 Zrotation Xrotation Yrotation
            JOINT HandLeft
            {
              OFFSET -1.609862 -5.063842 5.363331
              CHANNELS 3 Zrotation Xrotation Yrotation
              JOINT HandTipLeft
              {
                OFFSET 6.210005 -1.802957 1.437735
                CHANNELS 3 Zrotation Xrotation Yrotation
                End Site
                {
                  OFFSET 0 0 0
                }
              }
              JOINT ThumbLeft
              {
                OFFSET 5.621348 6.169494 1.318219
                CHANNELS 3 Zrotation Xrotation Yrotation
                End Site
                {
                  OFFSET 0 0 0
                }
              }
            }
          }
        }
      }
      JOINT ShoulderRight
      {
        OFFSET 11.239592 -6.493173 -12.214761
        CHANNELS 3 Zrotation Xrotation Yrotation
        JOINT ElbowRight
        {
          OFFSET 6.951974 -25.403036 0.381724
          CHANNELS 3 Zrotation Xrotation Yrotation
          JOINT WristRight
          {
            OFFSET 2.540998 -20.972599 6.140472
            CHANNELS 3 Zrotation Xrotation Yrotation
            JOINT HandRight
            {
              OFFSET 0.055629 -4.041423 1.620254
              CHANNELS 3 Zrotation Xrotation Yrotation
              JOINT HandTipRight
              {
                OFFSET -1.738642 -6.916058 0.480181
                CHANNELS 3 Zrotation Xrotation Yrotation
                End Site
                {
                  OFFSET 0 0 0
                }
              }
              JOINT ThumbRight
              {
                OFFSET 2.136816 -1.974675 -2.545980
                CHANNELS 3 Zrotation Xrotation Yrotation
                End Site
                {
                  OFFSET 0 0 0
                }
              }
            }
          }
        }
      }
    }
  }
  JOINT HipLeft
  {
    OFFSET -7.132747 0.923501 -1.116269
    CHANNELS 3 Zrotation Xrotation Yrotation
    JOINT KneeLeft
    {
      OFFSET -0.255169 -26.305882 -0.481088
      CHANNELS 3 Zrotation Xrotation Yrotation
      JOINT AnkleLeft
      {
        OFFSET -2.426392 -29.808334 -0.985424
        CHANNELS 3 Zrotation Xrotation Yrotation
        JOINT FootLeft
        {
          OFFSET -4.557962 -2.727013 -11.997285
          CHANNELS 3 Zrotation Xrotation Yrotation
          End Site
          {
            OFFSET 0 0 0
          }
        }
      }
    }
  }
  JOINT HipRight
  {
    OFFSET 5.402497 1.759099 -6.057186
    CHANNELS 3 Zrotation Xrotation Yrotation
    JOINT KneeRight
    {
      OFFSET -0.337679 -28.195075 -3.689841
      CHANNELS 3 Zrotation Xrotation Yrotation
      JOINT AnkleRight
      {
        OFFSET 0.939246 -31.465499 -3.159014
        CHANNELS 3 Zrotation Xrotation Yrotation
        JOINT FootRight
        {
          OFFSET -4.769181 -2.666436 -11.909570
          CHANNELS 3 Zrotation Xrotation Yrotation
          End Site
          {
            OFFSET 0 0 0
          }
        }
      }
    }
  }
}
MOTION
Frames: 6
Frame Time: 0.033333
62.758198 65.990179 260.959749 0.000000 0.000000 21.512475 -0.000000 0.000000 -21.512475 -0.000000 0.000000 0.000000 -0.000000 0.000000 0.000000 0.000000 0.000000 0.000000 -0.000000 0.000000 0.000000 -0.000000 0.000000 0.000000 -0.000000 0.000000 0.000000 -0.000000 0.000000 0.000000 0.000000 0.000000 0.000000 0.000000 0.000000 0.000000 -0.000000 0.000000 0.000000 -0.000000 0.000000 0.000000 -0.000000 0.000000 0.000000 -0.000000 0.000000 0.000000 0.000000 0.000000 0.000000 0.000000 0.000000 0.000000 -0.000000 0.000000 -21.512475 -0.000000 0.000000 0.000000 -0.000000 0.000000 0.000000 0.000000 0.000000 0.000000 -0.000000 0.000000 -21.512475 -0.000000 0.000000 0.000000 -0.000000 0.000000 0.000000 0.000000 0.000000 0.000000
62.767949 65.986282 260.982366 -0.020089 0.047641 21.518409 0.001214 -0.051689 -21.518400 -0.000000 0.000000 0.000000 -0.000000 0.000000 0.000000 0.000000 0.000000 0.000000 -0.000000 0.000000 0.000000 -0.000000 0.000000 0.000000 -0.000000 0.000000 0.000000 -0.000000 0.000000 0.000000 0.000000 0.000000 0.000000 0.000000 0.000000 0.000000 -0.000000 0.000000 0.000000 -0.000000 0.000000 0.000000 0.533405 0.974859 0.223479 0.670845 -0.417677 -0.275093 0.000000 0.000000 0.000000 0.000000 0.000000 0.000000 0.001214 -0.051689 -21.518400 -0.000000 0.000000 0.000000 -0.000000 0.000000 0.000000 0.000000 0.000000 0.000000 0.001214 -0.051689 -21.518400 -0.000000 0.000000 0.000000 -0.000000 0.000000 0.000000 0.000000 0.000000 0.000000
62.778577 65.982999 261.003342 -0.038421 0.091934 21.536343 0.001991 -0.099619 -21.536310 -0.000000 0.000000 0.000000 -0.778032 -0.406721 0.384395 0.000000 0.000000 0.000000 -0.000000 0.000000 0.000000 -0.000000 0.000000 0.000000 -0.000000 0.000000 0.000000 -0.000000 0.000000 0.000000 0.000000 0.000000 0.000000 0.000000 0.000000 0.000000 -0.000000 0.000000 0.000000 -0.000000 0.000000 0.000000 0.882416 1.786080 0.366862 1.419259 -0.781203 -0.438046 0.000000 0.000000 0.000000 0.000000 0.000000 0.000000 0.001991 -0.099619 -21.536310 -0.000000 0.000000 0.000000 -0.000000 0.000000 0.000000 0.000000 0.000000 0.000000 0.001991 -0.099619 -21.536310 -0.000000 0.000000 0.000000 -0.000000 0.000000 0.000000 0.000000 0.000000 0.000000
62.790081 65.980330 261.022677 -0.054996 0.132876 21.566317 0.002304 -0.143789 -21.566250 -0.000000 0.000000 0.000000 -1.109898 -0.602193 0.548666 0.000000 0.000000 0.000000 -0.000000 0.000000 0.000000 -0.000000 0.000000 0.000000 -0.000000 0.000000 0.000000 -0.000000 0.000000 0.000000 0.000000 0.000000 0.000000 0.000000 0.000000 0.000000 -0.000000 0.000000 0.000000 -0.000000 0.000000 0.000000 1.065551 2.445881 0.441852 2.193307 -1.120841 -0.497054 0.000000 0.000000 0.000000 0.000000 0.000000 0.000000 0.002304 -0.143789 -21.566250 -0.000000 0.000000 0.000000 -0.000000 0.000000 0.000000 0.000000 0.000000 0.000000 0.002304 -0.143789 -21.566250 -0.000000 0.000000 0.000000 -0.000000 0.000000 0.000000 0.000000 0.000000 0.000000
62.802461 65.978276 261.040371 -0.069812 0.170465 21.608372 0.002130 -0.184194 -21.608265 -0.000000 0.000000 0.000000 -1.403084 -0.791667 0.694298 0.000000 0.000000 0.000000 -0.000000 0.000000 0.000000 -0.000000 0.000000 0.000000 -0.000000 0.000000 0.000000 -0.000000 0.000000 0.000000 0.000000 0.000000 0.000000 0.000000 0.000000 0.000000 0.302981 0.760705 0.210593 -0.305802 -0.759575 -0.214631 1.099385 2.966549 0.457835 2.943598 -1.464817 -0.460683 0.000000 0.000000 0.000000 0.000000 0.000000 0.000000 0.002130 -0.184194 -21.608265 -0.000000 0.000000 0.000000 -0.000000 0.000000 0.000000 0.000000 0.000000 0.000000 0.002130 -0.184194 -21.608265 -0.000000 0.000000 0.000000 -0.000000 0.000000 0.000000 0.000000 0.000000 0.000000
62.815719 65.976836 261.056424 -0.082868 0.204700 21.662553 0.001453 -0.220833 -21.662403 -0.000000 0.000000 0.000000 -1.657247 -0.974653 0.821311 0.000000 0.000000 0.000000 -0.000000 0.000000 0.000000 0.273577 0.782446 0.006347 -0.273689 -0.782407 -0.010084 -0.000000 0.000000 0.000000 0.000000 0.000000 0.000000 0.000000 0.000000 0.000000 0.331472 0.927965 0.256084 -0.335659 -0.926459 -0.261482 0.998729 3.360036 0.422295 3.625817 -1.838176 -0.337779 0.000000 0.000000 0.000000 0.000000 0.000000 0.000000 0.001453 -0.220833 -21.662403 -0.000000 0.000000 0.000000 -0.000000 0.000000 0.000000 0.000000 0.000000 0.000000 0.001453 -0.220833 -21.662403 0.059731 -0.810197 -0.029780 -0.060158 0.810165 0.030628 0.000000 0.000000 0.000000
